<?xml version="1.0" encoding="UTF-8" standalone="no"?>
<svg width="12px" height="12px" viewBox="0 0 12 12" version="1.1" xmlns="http://www.w3.org/2000/svg" xmlns:xlink="http://www.w3.org/1999/xlink" xmlns:sketch="http://www.bohemiancoding.com/sketch/ns">
    <!-- Generator: Sketch 3.4.4 (17249) - http://www.bohemiancoding.com/sketch -->
    <title>noun_122584_cc</title>
    <desc>Created with Sketch.</desc>
    <defs></defs>
    <g id="Page-1" stroke="none" stroke-width="1" fill="none" fill-rule="evenodd" sketch:type="MSPage">
        <g id="Desktop-HD" sketch:type="MSArtboardGroup" transform="translate(-921.000000, -703.000000)" fill="#F39C12">
            <g id="noun_122584_cc" sketch:type="MSLayerGroup" transform="translate(919.000000, 701.000000)">
                <g id="Group" sketch:type="MSShapeGroup">
                    <path d="M10.1793685,6.24672243 C10.0644837,5.4005995 9.39563566,4.70609107 8.52519404,4.45183491 C8.80460748,4.10349054 9.11404193,3.79690725 9.45165252,3.54416052 L9.50364422,3.50541833 C9.67253337,3.38030282 9.86406407,3.23858352 9.99337245,3.01233579 C10.106077,2.81594135 10.1386138,2.56369777 10.0765592,2.36981906 C10.0334564,2.23497608 9.9452382,2.1311604 9.82834074,2.07698841 C9.72620222,2.03019588 9.59940957,2.02499671 9.47446178,2.05082484 C9.07395801,2.13099268 8.65064497,2.45082547 8.30464862,2.87279679 C8.33601135,2.76931654 8.36821266,2.66499772 8.40175569,2.55866631 C8.54297185,2.11036372 8.73701827,1.49619085 8.55454419,0.927971924 C8.53123179,0.85551898 8.49114787,0.749019861 8.41014145,0.661640269 C8.31320209,0.556650586 8.1760111,0.498285714 7.99504646,0.498285714 L7.99169215,0.498285714 C7.67169165,0.513883223 7.37718385,0.778370012 7.24116686,1.17216518 C7.13567404,1.47707132 7.13148116,1.80428357 7.12779142,2.09275363 L7.11336792,3.1874304 C6.87856671,2.77300627 6.52468775,2.43103508 6.13240202,2.30843531 C6.06280023,2.28696777 5.93416271,2.25946249 5.81760068,2.2839489 C5.67973883,2.3138022 5.5641831,2.40218808 5.49240101,2.53317361 C5.40820801,2.68646526 5.39428765,2.88453685 5.45550368,3.0500717 C5.53265265,3.25719991 5.68594429,3.39489404 5.82078727,3.51598438 L5.86087119,3.55221085 C6.13508546,3.8007647 6.36569379,4.09141505 6.55152217,4.41460214 C5.74095486,4.61971777 5.21684502,5.26240222 5.08334376,6.24655471 C4.95118423,7.21913486 5.11353249,8.71465083 5.28980111,10.0489926 C5.48938214,11.5636281 6.08410006,14.2354981 6.56208823,14.9754573 C6.87940529,15.4661918 7.31227809,15.736381 7.7807065,15.736381 L7.78909225,15.736381 C8.48276211,15.736381 8.81165151,15.2280363 8.93542529,15.0366734 C9.39077192,14.3319343 9.92142265,11.7719303 10.1293894,10.1945693 C10.2964337,8.92647507 10.3173981,7.26626281 10.1793685,6.24672243 L10.1793685,6.24672243 Z M9.13500632,10.0634161 C8.89953425,11.8494147 8.38330702,14.0431288 8.09315982,14.49227 C7.95915541,14.698895 7.89123078,14.7336121 7.78875682,14.7336121 L7.78037107,14.7336121 C7.61265592,14.7336121 7.44963679,14.5019975 7.40401827,14.4313894 C7.28292794,14.2437161 7.10783332,13.7340298 6.92770725,13.0733998 C6.95068423,13.0747415 6.97332577,13.0764187 6.99680589,13.0764187 C7.07076827,13.0764187 7.14791724,13.0700455 7.22892366,13.0552866 C7.50146077,13.0063138 7.68259313,12.745349 7.63362031,12.4724764 C7.58414434,12.2002748 7.32468901,12.0189747 7.0511456,12.0679475 C6.97013918,12.0832096 6.90439485,12.0704632 6.65500242,11.9671507 C6.55219303,11.5066049 6.4565954,11.0232499 6.37860786,10.5526411 C6.52535861,10.5737733 6.66338818,10.5865196 6.78833596,10.5865196 C6.99865076,10.5865196 7.17894454,10.5566663 7.3312299,10.4969597 C7.58900808,10.3959952 7.71613616,10.1051771 7.61500393,9.84706352 C7.5138717,9.58945305 7.2238922,9.4626604 6.96494001,9.5634572 C6.9448142,9.5711721 6.7655267,9.63037554 6.2306831,9.50576319 C6.16879621,9.01066807 6.11093448,8.48706138 6.07487572,7.99045682 C6.30498091,8.0211487 6.56661654,8.04529968 6.82875531,8.04529968 C7.22758194,8.04529968 7.62506684,7.99045682 7.90313855,7.82056138 C8.13961691,7.67666178 8.21441787,7.36806591 8.07035056,7.13158755 C7.92594782,6.89561233 7.61718423,6.81913423 7.3810413,6.96454326 C7.19940579,7.07489983 6.59579897,7.05628345 6.03831382,6.97041329 C6.04133269,6.75406075 6.05290504,6.55464744 6.07638516,6.38122997 C6.20217152,5.45426835 6.74841976,5.34592436 7.14925896,5.34592436 L7.50498279,5.34844009 L7.84024537,5.34592436 L7.84343196,5.3507881 C8.53123179,5.37041078 9.10800418,5.8135142 9.18515315,6.38106226 C9.29249084,7.1698266 9.3107718,8.72806805 9.13500632,10.0634161 L9.13500632,10.0634161 Z" id="Shape" transform="translate(7.652683, 8.117333) rotate(-315.000000) translate(-7.652683, -8.117333) "></path>
                </g>
            </g>
        </g>
    </g>
</svg>
